:SAMPLES-PER-SECOND 30
:FULLY-SPECIFIED
:DEGREES
138
root  -16.4607 34.6085 -14.8391 -172.104 33.3028 -175.129
RightUpLeg  -6.53721 2.81815 2.27267
RightLeg  1.73924 11.6611 -0.390273
RightFoot  9.53054 -0.13314 2.06609
RightToes  -34.7881 -0.178244 -0.283829
Spine  -3.89898 -2.85275 0.76923
Spine1  -7.49193 -5.62371 2.72374
HEad  -72.9363 -38.4209 8.57839
LeftShoulder1  -1.94126e-019 -3.10601e-018 -2.51263e-017
LeftArm  14.6799 -31.9216 -84.9574
LeftForeArm  166.628 -58.0919 -163.553
LeftHand  -1.28723 -2.87754 18.2023
RightShoulder  -4.96962e-017 0 -2.36833e-017
RightArm  -4.23252 18.9678 78.9853
RightForeArm  -167.792 59.6406 164.884
RightHand  -0.514508 -3.48039 -30.7238
LeftUpLeg  -1.27243 18.5048 7.59416
LeftLeg  15.9909 27.4575 5.74318
LeftFoot  0.000769514 -2.34571e-008 0.218217
LeftToes  -21.8789 1.7763e-006 6.54387e-008
139
root  -16.4043 34.5744 -14.7638 -171.599 36.5142 -174.396
RightUpLeg  -6.96981 4.25215 2.78822
RightLeg  1.80111 13.2573 -0.428217
RightFoot  9.9549 -0.17232 2.43842
RightToes  -36.8325 -0.193687 -0.296539
Spine  -4.00089 -2.8387 0.971964
Spine1  -7.69041 -5.54207 3.12896
HEad  -72.8692 -37.449 8.36506
LeftShoulder1  -1.94126e-019 -3.10601e-018 -2.51263e-017
LeftArm  6.77047 -30.2151 -83.4292
LeftForeArm  166.116 -56.6244 -164.363
LeftHand  -1.20089 -1.26437 20.9705
RightShoulder  -4.96962e-017 0 -2.36833e-017
RightArm  -10.1622 18.8255 77.566
RightForeArm  -179.31 61.1197 162.954
RightHand  0.247202 -6.2419 -32.5458
LeftUpLeg  -1.08724 19.7905 7.95721
LeftLeg  17.2316 29.1871 6.70079
LeftFoot  -0.307965 -0.000305722 0.0477207
LeftToes  -21.693 1.7763e-006 6.54387e-008
140
root  -16.386 34.5605 -14.6986 -171.186 39.0807 -173.862
RightUpLeg  -7.24104 5.96119 3.07327
RightLeg  1.65288 13.9641 -0.48627
RightFoot  10.44 -0.203796 2.68647
RightToes  -38.3928 -0.205773 -0.305865
Spine  -4.06943 -2.85236 0.987682
Spine1  -7.82149 -5.53825 3.15254
HEad  -72.0395 -36.5214 8.28141
LeftShoulder1  -1.94126e-019 -3.10601e-018 -2.51263e-017
LeftArm  3.66855 -29.2483 -82.72
LeftForeArm  163.478 -56.5866 -164.165
LeftHand  -0.936024 0.72132 23.1728
RightShoulder  -4.96962e-017 0 -2.36833e-017
RightArm  -11.0553 19.1942 77.7297
RightForeArm  175.001 62.6906 161.291
RightHand  1.01494 -8.45545 -36.795
LeftUpLeg  -0.943797 20.839 8.13457
LeftLeg  18.1693 30.4948 7.46777
LeftFoot  -0.389861 -0.000578744 -0.00859838
LeftToes  -21.4609 1.7763e-006 6.54387e-008
141
root  -16.3962 34.5541 -14.633 -170.813 40.913 -173.463
RightUpLeg  -7.44103 7.13855 3.24056
RightLeg  1.38096 14.5589 -0.574893
RightFoot  10.8176 -0.231168 2.89386
RightToes  -39.4063 -0.213758 -0.311744
Spine  -4.11957 -2.75929 0.99474
Spine1  -7.90935 -5.36306 3.15928
HEad  -71.1395 -36.5993 8.24405
LeftShoulder1  -1.94126e-019 -3.10601e-018 -2.51263e-017
LeftArm  8.72724 -29.0701 -83.4285
LeftForeArm  163.337 -58.9133 -162.752
LeftHand  -1.01651 -0.307326 20.7092
RightShoulder  -4.96962e-017 0 -2.36833e-017
RightArm  -4.67637 20.0305 78.2618
RightForeArm  178.935 63.32 161.184
RightHand  0.649963 -7.36964 -36.4394
LeftUpLeg  -0.878357 21.6289 8.22362
LeftLeg  18.7046 31.3932 7.95599
LeftFoot  -0.420737 -0.000727565 -0.0366351
LeftToes  -21.2457 1.7763e-006 6.54387e-008
142
root  -16.4273 34.5581 -14.6004 -170.639 41.708 -173.292
RightUpLeg  -7.36507 7.0211 3.28171
RightLeg  0.822365 15.4418 -0.75782
RightFoot  11.1194 -0.262349 3.14254
RightToes  -40.6255 -0.223499 -0.318628
Spine  -4.13463 -2.77732 1.01765
Spine1  -7.95616 -5.42494 3.1951
HEad  -70.5396 -36.7635 8.06743
LeftShoulder1  -1.94126e-019 -3.10601e-018 -2.51263e-017
LeftArm  18.8588 -29.6978 -84.4322
LeftForeArm  162.266 -62.4648 -160.117
LeftHand  -0.978113 -1.65484 16.2446
RightShoulder  -4.96962e-017 0 -2.36833e-017
RightArm  6.44294 21.632 79.2798
RightForeArm  -177.539 63.059 161.722
RightHand  -0.0927387 -5.04835 -31.155
LeftUpLeg  -0.776927 21.9887 8.21091
LeftLeg  18.6646 31.8117 8.02768
LeftFoot  -0.39875 -0.00409716 -0.0325101
LeftToes  -21.1133 1.7763e-006 6.54387e-008
143
root  -16.482 34.562 -14.5672 -170.601 41.709 -173.261
RightUpLeg  -7.29188 6.44493 3.27539
RightLeg  0.400177 15.9763 -0.899829
RightFoot  11.3476 -0.284947 3.31234
RightToes  -41.3848 -0.229639 -0.322811
Spine  -4.00388 -2.83264 1.08699
Spine1  -7.72554 -5.52846 3.31471
HEad  -70.3759 -36.8908 7.66462
LeftShoulder1  -1.94126e-019 -3.10601e-018 -2.51263e-017
LeftArm  19.4688 -28.3807 -84.3733
LeftForeArm  161.601 -61.2612 -160.982
LeftHand  -1.13821 -1.53263 19.1584
RightShoulder  -4.96962e-017 0 -2.36833e-017
RightArm  9.38528 20.9797 79.9101
RightForeArm  -177.144 62.9325 161.861
RightHand  0.336769 -6.36987 -37.5855
LeftUpLeg  -0.849416 22.1551 8.1971
LeftLeg  18.5596 31.644 7.93238
LeftFoot  -0.372924 -0.0091207 -0.0186616
LeftToes  -21.4185 1.7763e-006 6.54387e-008
144
root  -16.5771 34.5583 -14.5213 -170.848 41.2043 -173.4
RightUpLeg  -7.34705 6.18829 3.151
RightLeg  0.58642 15.6934 -0.83382
RightFoot  11.2691 -0.275281 3.23606
RightToes  -40.9413 -0.226046 -0.320378
Spine  -3.79954 -2.71221 1.01807
Spine1  -7.27849 -5.28397 3.16927
HEad  -71.922 -37.5537 8.92744
LeftShoulder1  -1.94126e-019 -3.10601e-018 -2.51263e-017
LeftArm  14.2494 -27.5036 -83.8735
LeftForeArm  166.651 -59.0301 -162.972
LeftHand  -1.06064 -1.33192 18.3979
RightShoulder  -4.96962e-017 0 -2.36833e-017
RightArm  3.27284 19.7331 79.597
RightForeArm  -168.865 62.0672 163.239
RightHand  -0.453502 -3.75765 -31.6777
LeftUpLeg  -1.11314 21.8843 8.07679
LeftLeg  18.8504 31.3865 8.03439
LeftFoot  -0.491503 -0.00852673 -0.0855606
LeftToes  -21.3438 1.7763e-006 6.54387e-008
145
root  -16.688 34.5586 -14.48 -171.176 40.2152 -173.699
RightUpLeg  -7.56248 6.18747 2.89663
RightLeg  1.13795 14.7687 -0.645047
RightFoot  11.0575 -0.246417 2.9969
RightToes  -39.9356 -0.217969 -0.314758
Spine  -3.73797 -2.46981 0.980611
Spine1  -7.09498 -4.76842 3.0724
HEad  -73.4107 -38.6744 10.0741
LeftShoulder1  -1.94126e-019 -3.10601e-018 -2.51263e-017
LeftArm  6.45858 -26.8201 -82.9651
LeftForeArm  163.513 -57.5283 -163.617
LeftHand  -0.970362 -0.6528 18.6924
RightShoulder  -4.96962e-017 0 -2.36833e-017
RightArm  -3.27212 18.7202 78.1624
RightForeArm  -170.943 60.8697 163.857
RightHand  -0.410113 -3.86948 -30.7549
LeftUpLeg  -1.55286 21.3966 7.8331
LeftLeg  19.1527 30.9232 8.09268
LeftFoot  -0.540254 -0.00920157 -0.103647
LeftToes  -20.9424 1.7763e-006 6.54387e-008
